<svg width="107" height="105" viewBox="0 0 107 105" fill="none" xmlns="http://www.w3.org/2000/svg">
<path d="M11.4808 48.0219C9.39249 48.0278 7.34852 48.6247 5.58535 49.7438C3.82219 50.8628 2.41187 52.4582 1.51758 54.3453C0.623286 56.2324 0.281557 58.3342 0.531929 60.4074C0.782301 62.4807 1.61454 64.4407 2.93237 66.0607L31.0253 100.474C32.027 101.718 33.3109 102.705 34.7705 103.353C36.2301 104.001 37.8233 104.291 39.4176 104.2C42.8275 104.016 45.906 102.192 47.8687 99.1933L106.225 5.2107C106.235 5.195 106.245 5.17949 106.255 5.16417C106.802 4.32345 106.625 2.65737 105.495 1.61072C105.184 1.3233 104.818 1.10248 104.419 0.961859C104.02 0.821239 103.596 0.763798 103.174 0.793075C102.752 0.822351 102.341 0.937724 101.965 1.13209C101.589 1.32645 101.257 1.59569 100.989 1.92323C100.968 1.94898 100.947 1.97434 100.924 1.99932L42.0714 68.4944C41.8475 68.7474 41.5755 68.9535 41.2713 69.1005C40.967 69.2475 40.6366 69.3326 40.2992 69.3509C39.9618 69.3691 39.6241 69.3202 39.3058 69.2068C38.9875 69.0934 38.6949 68.918 38.4449 68.6906L18.9127 50.9161C16.8842 49.0565 14.2327 48.024 11.4808 48.0219Z" fill="#27AE60"/>
</svg>
