<svg width="18" height="18" viewBox="0 0 18 18" fill="none" xmlns="http://www.w3.org/2000/svg">
<path d="M9 0C6.61384 0.00258081 4.32616 0.951621 2.63889 2.63889C0.951621 4.32616 0.00258081 6.61384 0 9C0.45 20.925 17.55 20.9197 18 9C17.9974 6.61384 17.0484 4.32616 15.3611 2.63889C13.6738 0.951621 11.3862 0.00258081 9 0ZM9 16.5C7.01155 16.4978 5.10516 15.7069 3.69911 14.3009C2.29306 12.8948 1.50218 10.9885 1.5 9C1.875 -0.936 16.125 -0.933 16.5 9C16.4978 10.9885 15.7069 12.8948 14.3009 14.3009C12.8948 15.7069 10.9885 16.4978 9 16.5ZM5.25 7.125C5.25 6.82663 5.36853 6.54048 5.5795 6.3295C5.79048 6.11853 6.07663 6 6.375 6C6.67337 6 6.95952 6.11853 7.1705 6.3295C7.38147 6.54048 7.5 6.82663 7.5 7.125C7.5 7.42337 7.38147 7.70952 7.1705 7.92049C6.95952 8.13147 6.67337 8.25 6.375 8.25C6.07663 8.25 5.79048 8.13147 5.5795 7.92049C5.36853 7.70952 5.25 7.42337 5.25 7.125ZM10.5 7.125C10.5 6.82663 10.6185 6.54048 10.8295 6.3295C11.0405 6.11853 11.3266 6 11.625 6C11.9234 6 12.2095 6.11853 12.4205 6.3295C12.6315 6.54048 12.75 6.82663 12.75 7.125C12.75 7.42337 12.6315 7.70952 12.4205 7.92049C12.2095 8.13147 11.9234 8.25 11.625 8.25C11.3266 8.25 11.0405 8.13147 10.8295 7.92049C10.6185 7.70952 10.5 7.42337 10.5 7.125ZM13.3815 11.6565C12.9408 12.4334 12.3046 13.0815 11.536 13.5365C10.7673 13.9914 9.89309 14.2374 9 14.25C8.10629 14.2375 7.23136 13.9916 6.46201 13.5367C5.69265 13.0818 5.05558 12.4336 4.614 11.6565C4.53426 11.532 4.49308 11.3868 4.49563 11.239C4.49817 11.0912 4.54434 10.9475 4.62832 10.8258C4.7123 10.7042 4.83035 10.6101 4.96764 10.5553C5.10494 10.5005 5.25535 10.4876 5.4 10.518C6.55326 10.9525 7.76863 11.1996 9 11.25C10.2293 11.199 11.4426 10.9519 12.594 10.518C12.7388 10.4872 12.8894 10.4999 13.027 10.5545C13.1645 10.6091 13.2828 10.7032 13.367 10.8249C13.4512 10.9466 13.4975 11.0905 13.5001 11.2385C13.5027 11.3865 13.4614 11.5319 13.3815 11.6565Z" fill="#282828"/>
</svg>
