<svg width="107" height="88" viewBox="0 0 107 88" fill="none" xmlns="http://www.w3.org/2000/svg">
<path d="M32.717 51.5529C33.2111 51.0588 33.2111 50.2353 32.717 49.7412L28.7641 45.7882L33.87 40.6824C34.3641 40.1882 34.3641 39.3647 33.87 38.8706C33.3759 38.3765 32.5523 38.3765 32.0582 38.8706L26.9523 43.9765L22.3406 39.3647C21.8464 38.8706 21.0229 38.8706 20.5288 39.3647C20.0347 39.8588 20.0347 40.6824 20.5288 41.1765L25.1406 45.7882L20.5288 50.4C20.0347 50.8941 20.0347 51.7176 20.5288 52.2118C21.0229 52.7059 21.8464 52.7059 22.3406 52.2118L26.9523 47.6L30.9053 51.5529C31.5641 52.0471 32.2229 52.0471 32.717 51.5529ZM32.2229 67.8588C31.7288 68.3529 31.7288 69.1765 32.3876 69.6706C32.8817 70.1647 33.7053 70.1647 34.1994 69.5059C42.27 60.6118 56.1053 60.7765 64.0112 69.0118C64.5053 69.5059 65.3288 69.5059 65.8229 69.0118C66.317 68.5177 66.317 67.6941 65.8229 67.2C56.7641 57.9765 41.2817 57.8118 32.2229 67.8588Z" fill="#5A5A5A"/>
<path d="M93.8228 77.7412L98.1052 34.0941C98.2699 32.2823 97.6111 30.4706 96.4581 29.1529C95.3052 27.8353 93.4934 27.0118 91.6817 27.0118V15.647C91.6817 11.3647 88.3875 7.90587 84.1052 7.74117L14.764 6.75293C10.317 6.75293 7.02283 10.2118 6.85813 14.3294V17.2941C4.88166 17.7882 3.3993 19.1059 2.57577 21.0823C1.58754 22.2353 0.928716 23.7176 0.599304 24.8706C-0.224226 27.8353 -0.0595198 30.9647 0.269892 34.0941C1.58754 48.5882 2.90519 62.9176 4.05813 77.4118C4.55224 83.6706 6.1993 86.3059 15.2581 86.8C41.117 88.1176 66.9758 87.9529 92.8346 87.4588C93.8228 87.4588 94.9758 87.4588 95.7993 86.9647C96.7875 86.4706 97.4464 85.4823 97.2817 84.4941C96.7875 82.3529 93.164 82.6823 91.0228 82.5176C92.5052 81.5294 93.4934 79.8823 93.8228 77.7412ZM14.764 9.38822L84.1052 10.3765C86.9052 10.3765 89.3758 12.847 89.2111 15.647V27.1765H64.9993C63.1875 27.1765 61.3758 26.3529 60.0581 25.0353L56.2699 20.7529C54.2934 18.6118 51.4934 17.2941 48.5287 17.2941H9.32872V14.6588C9.32872 11.5294 11.7993 9.22352 14.764 9.38822ZM87.3993 81.2H13.117C11.1405 81.2 9.32872 79.7176 9.16401 77.5765L4.38754 23.8823C4.22283 21.5765 6.0346 19.6 8.34048 19.6H48.5287C50.8346 19.6 52.9758 20.5882 54.4581 22.2353L58.2464 26.5176C59.8934 28.4941 62.364 29.647 64.9993 29.647H91.6817C92.8346 29.647 93.8228 30.1412 94.6464 30.9647C95.4699 31.7882 95.7993 32.9412 95.6346 33.9294L91.3522 77.5765C91.1875 79.5529 89.3758 81.2 87.3993 81.2Z" fill="#5A5A5A"/>
<path d="M70.1054 43.6471L73.7289 40.0235C74.223 39.5294 74.223 38.7059 73.7289 38.2118C73.2348 37.7176 72.4113 37.7176 71.9172 38.2118L68.2936 41.8353L63.6819 37.2235C63.1877 36.7294 62.3642 36.7294 61.8701 37.2235C61.376 37.7176 61.376 38.5412 61.8701 39.0353L66.4819 43.6471L62.1995 47.9294C61.7054 48.4235 61.7054 49.2471 62.1995 49.7412C62.6936 50.2353 63.5172 50.2353 64.0113 49.7412L68.2936 45.4588L72.9054 50.0706C73.3995 50.5647 74.223 50.5647 74.7172 50.0706C75.2113 49.5765 75.2113 48.7529 74.7172 48.2588L70.1054 43.6471ZM92.5054 0.494117C91.023 2.47059 89.8701 4.44706 89.0466 6.75294C88.8819 7.41176 89.2113 8.07059 89.8701 8.23529C90.5289 8.4 91.1877 8.07059 91.3524 7.41176C92.0113 5.43529 92.9995 3.45882 94.3172 1.81176C94.8113 1.31765 94.6466 0.494118 94.1524 0C93.6583 0 92.9995 -4.90862e-07 92.5054 0.494117ZM103.047 5.27059C102.717 4.77647 101.894 4.44706 101.4 4.94118L93.6583 9.88235C93.1642 10.2118 92.9995 11.0353 93.3289 11.5294C93.6583 12.0235 94.4819 12.3529 94.976 11.8588L102.717 6.91765C103.211 6.58824 103.376 5.76471 103.047 5.27059ZM105.352 14.1647L96.623 14.8235C95.9642 14.8235 95.4701 15.4824 95.4701 16.1412C95.4701 16.8 96.1289 17.2941 96.7877 17.2941L105.517 16.6353C106.176 16.6353 106.67 15.9765 106.67 15.3176C106.505 14.6588 106.011 14.1647 105.352 14.1647Z" fill="#5A5A5A"/>
</svg>
